<?xml version="1.0" encoding="UTF-8"?>
<svg xmlns="http://www.w3.org/2000/svg" xmlns:xlink="http://www.w3.org/1999/xlink" viewBox="0 0 48 48" width="48px" height="48px">
<g id="surface41860297">
<path style=" stroke:none;fill-rule:nonzero;fill:rgb(91.764706%,91.764706%,92.54902%);fill-opacity:1;" d="M 15 13 L 40 13 C 41.105469 13 42 13.894531 42 15 L 42 40 C 42 41.105469 41.105469 42 40 42 L 26 42 Z M 15 13 "/>
<path style=" stroke:none;fill-rule:nonzero;fill:rgb(41.176471%,41.960785%,47.450981%);fill-opacity:1;" d="M 26.832031 34.855469 L 25.914062 33.078125 L 26.804688 32.617188 C 26.867188 32.589844 32.90625 29.410156 35.847656 23.515625 L 36.292969 22.621094 L 38.085938 23.511719 L 37.636719 24.40625 C 34.394531 30.902344 27.992188 34.257812 27.722656 34.398438 Z M 26.832031 34.855469 "/>
<path style=" stroke:none;fill-rule:nonzero;fill:rgb(41.176471%,41.960785%,47.450981%);fill-opacity:1;" d="M 38.019531 34 L 37.148438 33.511719 C 36.941406 33.394531 32.058594 30.609375 28.652344 25.84375 L 30.28125 24.679688 C 33.417969 29.074219 38.085938 31.742188 38.132812 31.769531 L 39 32.261719 Z M 26 22 L 40 22 L 40 24 L 26 24 Z M 26 22 "/>
<path style=" stroke:none;fill-rule:nonzero;fill:rgb(41.176471%,41.960785%,47.450981%);fill-opacity:1;" d="M 32 20 L 34 20 L 34 24 L 32 24 Z M 32 20 "/>
<path style=" stroke:none;fill-rule:nonzero;fill:rgb(100%,24.705882%,42.352942%);fill-opacity:1;" d="M 33 35 L 8 35 C 6.894531 35 6 34.105469 6 33 L 6 8 C 6 6.894531 6.894531 6 8 6 L 22 6 Z M 33 35 "/>
<path style=" stroke:none;fill-rule:nonzero;fill:rgb(41.176471%,41.960785%,47.450981%);fill-opacity:1;" d="M 26 42 L 23 35 L 33 35 Z M 26 42 "/>
<path style=" stroke:none;fill-rule:nonzero;fill:rgb(91.764706%,91.764706%,92.54902%);fill-opacity:1;" d="M 19.171875 24 L 14.8125 24 L 13.804688 27 L 11 27 L 15.765625 14 L 18.207031 14 L 23 27 L 20.195312 27 Z M 15.445312 22 L 18.546875 22 L 16.984375 17.285156 Z M 15.445312 22 "/>
</g>
</svg>
